<svg width="22" height="22" viewBox="0 0 22 22" fill="none" xmlns="http://www.w3.org/2000/svg">
<path d="M16.9224 16.9588C17.3412 16.5429 18.0124 16.5429 18.4311 16.9588L21.1987 19.1928H21.2467C21.8066 19.7587 21.8066 20.6763 21.2467 21.2422C20.6868 21.8081 19.779 21.8081 19.2191 21.2422L16.9224 18.61L16.8353 18.5117C16.6729 18.3062 16.5833 18.05 16.5833 17.7844C16.5833 17.4746 16.7053 17.1775 16.9224 16.9588ZM9.29244 0C11.757 0 14.1205 0.989556 15.8632 2.75098C17.6059 4.5124 18.5849 6.9014 18.5849 9.39242C18.5849 14.5797 14.4245 18.7848 9.29244 18.7848C4.16037 18.7848 0 14.5797 0 9.39242C0 4.20513 4.16037 0 9.29244 0Z" fill="url(#paint0_linear_20_13)"/>
<defs>
<linearGradient id="paint0_linear_20_13" x1="10.8333" y1="0" x2="10.8333" y2="21.6667" gradientUnits="userSpaceOnUse">
<stop stop-color="#504F50"/>
<stop offset="1" stop-color="#575459" stop-opacity="0.77"/>
</linearGradient>
</defs>
</svg>
