<svg width="36" height="35" viewBox="0 0 36 35" fill="none" xmlns="http://www.w3.org/2000/svg">
<path d="M4.63535 8.84843C4.89781 8.5396 5.35678 8.47322 5.69785 8.70781C6.06163 8.95841 6.1534 9.45726 5.90293 9.82109L5.62168 10.2449C4.25493 12.3865 3.48398 14.8418 3.3873 17.367C3.28425 20.0604 3.95268 22.7297 5.31894 25.074C5.42402 25.2543 5.45452 25.4692 5.4039 25.6717L3.87949 31.7576L10.7096 30.6033L10.8395 30.5926C10.9692 30.592 11.0984 30.6227 11.2145 30.6834C13.5537 31.9062 16.1868 32.4951 18.8395 32.3875L19.3355 32.3592C21.8123 32.1774 24.2048 31.3919 26.2926 30.0721L26.3639 30.032C26.7267 29.8511 27.1747 29.9711 27.3961 30.3211C27.632 30.6944 27.5212 31.1884 27.148 31.4246L26.6812 31.7088C24.483 32.9987 22.0073 33.7674 19.4527 33.9549L18.9039 33.9861C16.0646 34.1013 13.2453 33.4926 10.7184 32.2244L3.9459 33.3689C2.90285 33.5452 2.02211 32.5933 2.2789 31.5672L3.775 25.5906C2.36701 23.0555 1.67811 20.1945 1.78867 17.3055C1.90353 14.3065 2.87259 11.3995 4.58554 8.91289L4.63535 8.84843ZM18.2232 7.66289C23.9844 7.66322 28.6859 12.233 28.6861 17.908C28.6861 23.5832 23.9845 28.1528 18.2232 28.1531C12.4617 28.1531 7.75942 23.5834 7.75937 17.908C7.7596 12.2328 12.4618 7.66289 18.2232 7.66289ZM31.0006 9.04765C31.3481 8.82226 31.8053 8.90135 32.0592 9.21758L32.107 9.28398L32.4215 9.78789C33.9433 12.3356 34.7221 15.2487 34.6656 18.2088C34.6053 21.3662 33.5968 24.4351 31.7682 27.034L31.7184 27.0984C31.4528 27.4049 30.9927 27.4666 30.6539 27.2283C30.2926 26.9741 30.2053 26.4744 30.4596 26.1131L30.7603 25.6697C32.2165 23.4282 33.0152 20.8368 33.066 18.1785C33.1168 15.5199 32.4172 12.9012 31.0475 10.6082L30.7652 10.1541L30.7242 10.0838C30.5388 9.72302 30.653 9.27315 31.0006 9.04765ZM18.2232 9.2625C13.3108 9.2625 9.35921 13.1507 9.35898 17.908C9.35902 22.6655 13.3106 26.5535 18.2232 26.5535C23.1355 26.5532 27.0865 22.6653 27.0865 17.908C27.0863 13.1509 23.1354 9.26283 18.2232 9.2625ZM19.0367 1.83574C21.8659 1.97291 24.6123 2.82288 27.0084 4.30449L27.5162 4.63164L27.5826 4.68047C27.8948 4.93909 27.9664 5.39797 27.7359 5.74199C27.5053 6.0861 27.0538 6.19338 26.6959 6.00273L26.6256 5.96074L26.1666 5.66582C24.0026 4.32772 21.5198 3.55758 18.9596 3.4334L18.4098 3.41679C15.4725 3.38073 12.5913 4.19672 10.1305 5.75859C9.75744 5.99536 9.26275 5.88455 9.02597 5.51152C8.78935 5.13851 8.90008 4.64474 9.27304 4.408C11.9978 2.67859 15.1839 1.77733 18.4293 1.81718L19.0367 1.83574Z" fill="#4D4C4E"/>
<path d="M4.63535 8.84843L3.87335 8.20086L3.85829 8.21858L3.84406 8.23699L4.63535 8.84843ZM5.69785 8.70781L6.26515 7.8843L6.26455 7.88389L5.69785 8.70781ZM5.90293 9.82109L5.07924 9.25404L5.07441 9.26106L5.0697 9.26816L5.90293 9.82109ZM5.62168 10.2449L4.78845 9.69199L4.78351 9.69943L4.77871 9.70695L5.62168 10.2449ZM3.3873 17.367L2.38803 17.3287L2.38803 17.3288L3.3873 17.367ZM5.31894 25.074L4.45496 25.5775L4.45498 25.5776L5.31894 25.074ZM5.4039 25.6717L6.37394 25.9147L6.37404 25.9143L5.4039 25.6717ZM3.87949 31.7576L2.90946 31.5146L2.53777 32.9985L4.04613 32.7436L3.87949 31.7576ZM10.7096 30.6033L10.6271 29.6067L10.5848 29.6102L10.5429 29.6173L10.7096 30.6033ZM10.8395 30.5926L10.8347 29.5926L10.7958 29.5928L10.757 29.596L10.8395 30.5926ZM11.2145 30.6834L10.7512 31.5696L10.7512 31.5696L11.2145 30.6834ZM18.8395 32.3875L18.88 33.3867L18.8882 33.3863L18.8964 33.3859L18.8395 32.3875ZM19.3355 32.3592L19.3925 33.3576L19.4006 33.3571L19.4087 33.3565L19.3355 32.3592ZM26.2926 30.0721L25.8029 29.2002L25.7802 29.2129L25.7582 29.2268L26.2926 30.0721ZM26.3639 30.032L25.9176 29.1371L25.8956 29.1481L25.8742 29.1601L26.3639 30.032ZM27.3961 30.3211L28.2414 29.7869L28.2413 29.7866L27.3961 30.3211ZM27.148 31.4246L27.668 32.2788L27.6755 32.2742L27.6829 32.2696L27.148 31.4246ZM26.6812 31.7088L27.1874 32.5713L27.1943 32.5672L27.2013 32.563L26.6812 31.7088ZM19.4527 33.9549L19.5096 34.9533L19.5178 34.9528L19.5259 34.9522L19.4527 33.9549ZM18.9039 33.9861L18.9444 34.9853L18.9526 34.985L18.9608 34.9845L18.9039 33.9861ZM10.7184 32.2244L11.1669 31.3307L10.8744 31.1839L10.5517 31.2384L10.7184 32.2244ZM3.9459 33.3689L4.11251 34.355L4.11253 34.355L3.9459 33.3689ZM2.2789 31.5672L1.30884 31.3244L1.30882 31.3244L2.2789 31.5672ZM3.775 25.5906L4.74507 25.8335L4.84097 25.4503L4.64922 25.1051L3.775 25.5906ZM1.78867 17.3055L0.789402 17.2672L0.789401 17.2672L1.78867 17.3055ZM4.58554 8.91289L3.79426 8.30144L3.77754 8.32307L3.76203 8.34559L4.58554 8.91289ZM18.2232 7.66289L18.2233 6.66289H18.2232V7.66289ZM28.6861 17.908L29.6861 17.908L29.6861 17.908L28.6861 17.908ZM18.2232 28.1531L18.2232 29.1531L18.2233 29.1531L18.2232 28.1531ZM7.75937 17.908L6.75937 17.908L6.75937 17.908L7.75937 17.908ZM31.0006 9.04765L30.4564 8.20866L30.4563 8.20874L31.0006 9.04765ZM32.0592 9.21758L32.8705 8.63296L32.8553 8.61184L32.839 8.59154L32.0592 9.21758ZM32.107 9.28398L32.9554 8.75457L32.9378 8.72635L32.9183 8.69936L32.107 9.28398ZM32.4215 9.78789L33.28 9.27508L33.275 9.26673L33.2698 9.25848L32.4215 9.78789ZM34.6656 18.2088L35.6654 18.2279L35.6654 18.2279L34.6656 18.2088ZM31.7682 27.034L32.5594 27.6454L32.5731 27.6277L32.586 27.6094L31.7682 27.034ZM31.7184 27.0984L32.4741 27.7533L32.4925 27.7321L32.5096 27.7099L31.7184 27.0984ZM30.6539 27.2283L30.0784 28.0462L30.0786 28.0463L30.6539 27.2283ZM30.4596 26.1131L31.2774 26.6885L31.2823 26.6816L31.2871 26.6745L30.4596 26.1131ZM30.7603 25.6697L31.5879 26.2311L31.5935 26.2229L31.5989 26.2145L30.7603 25.6697ZM33.066 18.1785L34.0658 18.1976L34.0658 18.1976L33.066 18.1785ZM31.0475 10.6082L31.9059 10.0954L31.9014 10.0878L31.8968 10.0803L31.0475 10.6082ZM30.7652 10.1541L29.9015 10.658L29.9085 10.6701L29.9159 10.682L30.7652 10.1541ZM30.7242 10.0838L29.8348 10.5409L29.847 10.5646L29.8604 10.5877L30.7242 10.0838ZM18.2232 9.2625L18.2233 8.2625H18.2232V9.2625ZM9.35898 17.908L8.35898 17.908L8.35898 17.908L9.35898 17.908ZM18.2232 26.5535L18.2232 27.5535L18.2233 27.5535L18.2232 26.5535ZM27.0865 17.908L28.0865 17.908L28.0865 17.908L27.0865 17.908ZM19.0367 1.83574L19.0851 0.836913L19.0762 0.836479L19.0672 0.836205L19.0367 1.83574ZM27.0084 4.30449L27.55 3.46384L27.5422 3.45883L27.5343 3.45396L27.0084 4.30449ZM27.5162 4.63164L28.1086 3.82599L28.0837 3.8077L28.0578 3.79098L27.5162 4.63164ZM27.5826 4.68047L28.2206 3.91043L28.1983 3.89196L28.175 3.87481L27.5826 4.68047ZM27.7359 5.74199L28.5666 6.29874L28.5667 6.29862L27.7359 5.74199ZM26.6959 6.00273L26.1832 6.86127L26.2042 6.87383L26.2258 6.88534L26.6959 6.00273ZM26.6256 5.96074L26.085 6.80203L26.0988 6.81089L26.1128 6.81928L26.6256 5.96074ZM26.1666 5.66582L26.7072 4.82452L26.6999 4.81984L26.6925 4.81528L26.1666 5.66582ZM18.9596 3.4334L19.008 2.43457L18.9989 2.43413L18.9897 2.43385L18.9596 3.4334ZM18.4098 3.41679L18.4399 2.41725L18.431 2.41698L18.422 2.41687L18.4098 3.41679ZM10.1305 5.75859L9.5946 4.91429L9.59458 4.9143L10.1305 5.75859ZM9.02597 5.51152L8.18155 6.04719L8.18169 6.04741L9.02597 5.51152ZM9.27304 4.408L8.73717 3.56371L8.73715 3.56372L9.27304 4.408ZM18.4293 1.81718L18.4598 0.817651L18.4507 0.817372L18.4416 0.81726L18.4293 1.81718ZM4.63535 8.84843L5.39735 9.49601C5.33148 9.57351 5.2175 9.59113 5.13115 9.53173L5.69785 8.70781L6.26455 7.88389C5.49606 7.35531 4.46414 7.50568 3.87335 8.20086L4.63535 8.84843ZM5.69785 8.70781L5.13055 9.53132C5.03925 9.46843 5.01686 9.34466 5.07924 9.25404L5.90293 9.82109L6.72661 10.3881C7.28994 9.56986 7.08401 8.44839 6.26515 7.8843L5.69785 8.70781ZM5.90293 9.82109L5.0697 9.26816L4.78845 9.69199L5.62168 10.2449L6.45491 10.7978L6.73616 10.374L5.90293 9.82109ZM5.62168 10.2449L4.77871 9.70695C3.31709 11.9972 2.49156 14.6247 2.38803 17.3287L3.3873 17.367L4.38657 17.4052C4.4764 15.0588 5.19276 12.7759 6.46464 10.7829L5.62168 10.2449ZM3.3873 17.367L2.38803 17.3288C2.27768 20.2131 2.99364 23.0701 4.45496 25.5775L5.31894 25.074L6.18293 24.5705C4.91172 22.3892 4.29082 19.9078 4.38657 17.4052L3.3873 17.367ZM5.31894 25.074L4.45498 25.5776C4.42857 25.5323 4.42119 25.4794 4.43377 25.4291L5.4039 25.6717L6.37404 25.9143C6.48786 25.4591 6.41947 24.9763 6.18291 24.5705L5.31894 25.074ZM5.4039 25.6717L4.43387 25.4287L2.90946 31.5146L3.87949 31.7576L4.84952 32.0006L6.37394 25.9147L5.4039 25.6717ZM3.87949 31.7576L4.04613 32.7436L10.8762 31.5893L10.7096 30.6033L10.5429 29.6173L3.71285 30.7716L3.87949 31.7576ZM10.7096 30.6033L10.792 31.5999L10.9219 31.5892L10.8395 30.5926L10.757 29.596L10.6271 29.6067L10.7096 30.6033ZM10.8395 30.5926L10.8442 31.5926C10.8136 31.5927 10.7818 31.5856 10.7512 31.5696L11.2145 30.6834L11.6777 29.7972C11.4149 29.6598 11.1248 29.5912 10.8347 29.5926L10.8395 30.5926ZM11.2145 30.6834L10.7512 31.5696C13.2464 32.874 16.0533 33.5014 18.88 33.3867L18.8395 32.3875L18.7989 31.3883C16.3202 31.4889 13.861 30.9385 11.6777 29.7972L11.2145 30.6834ZM18.8395 32.3875L18.8964 33.3859L19.3925 33.3576L19.3355 32.3592L19.2786 31.3608L18.7825 31.3891L18.8395 32.3875ZM19.3355 32.3592L19.4087 33.3565C22.048 33.1628 24.5991 32.3257 26.8269 30.9173L26.2926 30.0721L25.7582 29.2268C23.8105 30.4581 21.5765 31.192 19.2624 31.3619L19.3355 32.3592ZM26.2926 30.0721L26.7823 30.944L26.8536 30.9039L26.3639 30.032L25.8742 29.1601L25.8029 29.2002L26.2926 30.0721ZM26.3639 30.032L26.8101 30.9269C26.7179 30.9729 26.6063 30.9431 26.5509 30.8556L27.3961 30.3211L28.2413 29.7866C27.7432 28.999 26.7355 28.7292 25.9176 29.1371L26.3639 30.032ZM27.3961 30.3211L26.5507 30.8553C26.4922 30.7627 26.5192 30.6392 26.6132 30.5796L27.148 31.4246L27.6829 32.2696C28.5231 31.7377 28.7718 30.6261 28.2414 29.7869L27.3961 30.3211ZM27.148 31.4246L26.628 30.5704L26.1612 30.8546L26.6812 31.7088L27.2013 32.563L27.668 32.2788L27.148 31.4246ZM26.6812 31.7088L26.1751 30.8463C24.1099 32.0582 21.7824 32.7812 19.3795 32.9576L19.4527 33.9549L19.5259 34.9522C22.2322 34.7536 24.8562 33.9392 27.1874 32.5713L26.6812 31.7088ZM19.4527 33.9549L19.3959 32.9565L18.8471 32.9877L18.9039 33.9861L18.9608 34.9845L19.5096 34.9533L19.4527 33.9549ZM18.9039 33.9861L18.8634 32.987C16.1932 33.0953 13.5422 32.5227 11.1669 31.3307L10.7184 32.2244L10.2698 33.1182C12.9484 34.4625 15.936 35.1073 18.9444 34.9853L18.9039 33.9861ZM10.7184 32.2244L10.5517 31.2384L3.77926 32.3829L3.9459 33.3689L4.11253 34.355L10.885 33.2104L10.7184 32.2244ZM3.9459 33.3689L3.77928 32.3829C3.44717 32.439 3.16734 32.1362 3.24899 31.81L2.2789 31.5672L1.30882 31.3244C0.876877 33.0504 2.35854 34.6513 4.11251 34.355L3.9459 33.3689ZM2.2789 31.5672L3.24897 31.81L4.74507 25.8335L3.775 25.5906L2.80493 25.3478L1.30884 31.3244L2.2789 31.5672ZM3.775 25.5906L4.64922 25.1051C3.32921 22.7284 2.68444 20.0484 2.78794 17.3437L1.78867 17.3055L0.789401 17.2672C0.671786 20.3407 1.40481 23.3826 2.90078 26.0762L3.775 25.5906ZM1.78867 17.3055L2.78794 17.3437C2.89549 14.5355 3.8029 11.8117 5.40905 9.48019L4.58554 8.91289L3.76203 8.34559C1.94229 10.9872 0.911564 14.0775 0.789402 17.2672L1.78867 17.3055ZM4.58554 8.91289L5.37683 9.52434L5.42663 9.45988L4.63535 8.84843L3.84406 8.23699L3.79426 8.30144L4.58554 8.91289ZM18.2232 7.66289L18.2232 8.66289C23.4542 8.66319 27.6859 12.8071 27.6861 17.908L28.6861 17.908L29.6861 17.908C29.6859 11.6588 24.5146 6.66325 18.2233 6.66289L18.2232 7.66289ZM28.6861 17.908L27.6861 17.908C27.6861 23.009 23.4544 27.1528 18.2232 27.1531L18.2232 28.1531L18.2233 29.1531C24.5147 29.1528 29.6861 24.1574 29.6861 17.908L28.6861 17.908ZM18.2232 28.1531V27.1531C12.9917 27.1531 8.75941 23.0092 8.75937 17.908L7.75937 17.908L6.75937 17.908C6.75942 24.1576 11.9316 29.1531 18.2232 29.1531V28.1531ZM7.75937 17.908L8.75937 17.908C8.75958 12.807 12.9919 8.66289 18.2232 8.66289V7.66289V6.66289C11.9317 6.66289 6.75962 11.6585 6.75937 17.908L7.75937 17.908ZM31.0006 9.04765L31.5447 9.88665C31.4567 9.94376 31.343 9.92289 31.2794 9.84361L32.0592 9.21758L32.839 8.59154C32.2676 7.8798 31.2396 7.70075 30.4564 8.20866L31.0006 9.04765ZM32.0592 9.21758L31.2479 9.80219L31.2957 9.8686L32.107 9.28398L32.9183 8.69936L32.8705 8.63296L32.0592 9.21758ZM32.107 9.28398L31.2587 9.81339L31.5731 10.3173L32.4215 9.78789L33.2698 9.25848L32.9554 8.75457L32.107 9.28398ZM32.4215 9.78789L31.563 10.3007C32.9896 12.689 33.7187 15.418 33.6658 18.1897L34.6656 18.2088L35.6654 18.2279C35.7255 15.0794 34.8971 11.9823 33.28 9.27508L32.4215 9.78789ZM34.6656 18.2088L33.6658 18.1897C33.6094 21.146 32.6651 24.0214 30.9503 26.4585L31.7682 27.034L32.586 27.6094C34.5285 24.8487 35.6013 21.5863 35.6654 18.2279L34.6656 18.2088ZM31.7682 27.034L30.9769 26.4225L30.9271 26.487L31.7184 27.0984L32.5096 27.7099L32.5594 27.6454L31.7682 27.034ZM31.7184 27.0984L30.9626 26.4436C31.0295 26.3664 31.1437 26.3503 31.2292 26.4104L30.6539 27.2283L30.0786 28.0463C30.8417 28.583 31.8761 28.4435 32.4741 27.7533L31.7184 27.0984ZM30.6539 27.2283L31.2294 26.4105C31.3191 26.4736 31.3414 26.5976 31.2774 26.6885L30.4596 26.1131L29.6417 25.5376C29.0692 26.3513 29.266 27.4745 30.0784 28.0462L30.6539 27.2283ZM30.4596 26.1131L31.2871 26.6745L31.5879 26.2311L30.7603 25.6697L29.9328 25.1083L29.632 25.5517L30.4596 26.1131ZM30.7603 25.6697L31.5989 26.2145C33.1561 23.8175 34.0114 21.0443 34.0658 18.1976L33.066 18.1785L32.0662 18.1594C32.019 20.6294 31.277 23.0389 29.9218 25.1249L30.7603 25.6697ZM33.066 18.1785L34.0658 18.1976C34.1202 15.3505 33.3709 12.5477 31.9059 10.0954L31.0475 10.6082L30.189 11.121C31.4635 13.2546 32.1134 15.6892 32.0662 18.1594L33.066 18.1785ZM31.0475 10.6082L31.8968 10.0803L31.6146 9.62624L30.7652 10.1541L29.9159 10.682L30.1981 11.1361L31.0475 10.6082ZM30.7652 10.1541L31.629 9.65023L31.588 9.57992L30.7242 10.0838L29.8604 10.5877L29.9015 10.658L30.7652 10.1541ZM30.7242 10.0838L31.6136 9.62672C31.6602 9.71724 31.6328 9.82948 31.5448 9.88657L31.0006 9.04765L30.4563 8.20874C29.6732 8.71683 29.4175 9.7288 29.8348 10.5409L30.7242 10.0838ZM18.2232 9.2625V8.2625C12.7795 8.2625 8.35924 12.5776 8.35898 17.908L9.35898 17.908L10.359 17.9081C10.3592 13.7238 13.842 10.2625 18.2232 10.2625V9.2625ZM9.35898 17.908L8.35898 17.908C8.35903 23.2386 12.7795 27.5535 18.2232 27.5535V26.5535V25.5535C13.8418 25.5535 10.359 22.0923 10.359 17.908L9.35898 17.908ZM18.2232 26.5535L18.2233 27.5535C23.6668 27.5531 28.0865 23.2383 28.0865 17.908L27.0865 17.908L26.0865 17.908C26.0865 22.0922 22.6043 25.5532 18.2232 25.5535L18.2232 26.5535ZM27.0865 17.908L28.0865 17.908C28.0863 12.5779 23.6667 8.26286 18.2233 8.2625L18.2232 9.2625L18.2232 10.2625C22.6041 10.2628 26.0863 13.724 26.0865 17.9081L27.0865 17.908ZM19.0367 1.83574L18.9883 2.83457C21.6495 2.9636 24.2314 3.7631 26.4825 5.15502L27.0084 4.30449L27.5343 3.45396C24.9932 1.88267 22.0823 0.982233 19.0851 0.836913L19.0367 1.83574ZM27.0084 4.30449L26.4668 5.14514L26.9746 5.47229L27.5162 4.63164L28.0578 3.79098L27.55 3.46384L27.0084 4.30449ZM27.5162 4.63164L26.9238 5.43729L26.9902 5.48612L27.5826 4.68047L28.175 3.87481L28.1086 3.82599L27.5162 4.63164ZM27.5826 4.68047L26.9446 5.4505C26.8654 5.38483 26.8475 5.27146 26.9052 5.18536L27.7359 5.74199L28.5667 6.29862C29.0854 5.52449 28.9242 4.49334 28.2206 3.91043L27.5826 4.68047ZM27.7359 5.74199L26.9053 5.18523C26.9639 5.09775 27.0766 5.0725 27.166 5.12013L26.6959 6.00273L26.2258 6.88534C27.0311 7.31426 28.0467 7.07445 28.5666 6.29874L27.7359 5.74199ZM26.6959 6.00273L27.2086 5.14419L27.1383 5.1022L26.6256 5.96074L26.1128 6.81928L26.1832 6.86127L26.6959 6.00273ZM26.6256 5.96074L27.1662 5.11944L26.7072 4.82452L26.1666 5.66582L25.626 6.50711L26.085 6.80203L26.6256 5.96074ZM26.1666 5.66582L26.6925 4.81528C24.3837 3.38765 21.7365 2.56691 19.008 2.43457L18.9596 3.4334L18.9111 4.43222C21.3031 4.54824 23.6215 5.26779 25.6407 6.51635L26.1666 5.66582ZM18.9596 3.4334L18.9897 2.43385L18.4399 2.41725L18.4098 3.41679L18.3796 4.41634L18.9294 4.43294L18.9596 3.4334ZM18.4098 3.41679L18.422 2.41687C15.2921 2.37844 12.2203 3.24782 9.5946 4.91429L10.1305 5.75859L10.6663 6.60289C12.9624 5.14562 15.653 4.38302 18.3975 4.41672L18.4098 3.41679ZM10.1305 5.75859L9.59458 4.9143C9.68836 4.85478 9.8114 4.88289 9.87026 4.97563L9.02597 5.51152L8.18169 6.04741C8.71409 6.88621 9.82652 7.13595 10.6664 6.60288L10.1305 5.75859ZM9.02597 5.51152L9.8704 4.97585C9.92997 5.06975 9.90154 5.19351 9.80894 5.25229L9.27304 4.408L8.73715 3.56372C7.89861 4.09596 7.64874 5.20727 8.18155 6.04719L9.02597 5.51152ZM9.27304 4.408L9.80892 5.2523C12.3689 3.6275 15.3643 2.77963 18.417 2.81711L18.4293 1.81718L18.4416 0.81726C15.0035 0.775044 11.6268 1.72968 8.73717 3.56371L9.27304 4.408ZM18.4293 1.81718L18.3988 2.81672L19.0062 2.83527L19.0367 1.83574L19.0672 0.836205L18.4598 0.817651L18.4293 1.81718Z" fill="#4D4C4E"/>
</svg>
